<svg width="67" height="76" viewBox="0 0 67 76" fill="none" xmlns="http://www.w3.org/2000/svg">
<g clip-path="url(#clip0_1188_582)">
<path d="M6.6864 67.7703L0.714294 0.790771H66.3357L60.3556 67.7597L33.4851 75.2095L6.6864 67.7703Z" fill="#E44F26"/>
<path d="M33.525 69.5165L55.2393 63.4966L60.3476 6.26855H33.525V69.5165Z" fill="#F1662A"/>
<path d="M33.525 31.1085H22.6545L21.905 22.6965H33.525V14.4812H12.9269L13.1236 16.6872L15.1409 39.3238H33.525V31.1085ZM33.525 52.4427L33.4878 52.4534L24.3396 49.9843L23.7549 43.4328H15.5077L16.6585 56.3285L33.4878 61.0009L33.525 60.9903V52.4427Z" fill="#EBEBEB"/>
<path d="M33.4958 31.1085V39.3238H43.6114L42.6599 49.9789L33.4958 52.4507V60.9982L50.3383 56.3285L50.4606 54.9411L52.3901 33.3145L52.5921 31.1085H33.4958ZM33.4958 14.4812V22.6965H53.339L53.5038 20.852L53.8785 16.6872L54.0752 14.4812H33.4958Z" fill="white"/>
</g>
<defs>
<clipPath id="clip0_1188_582">
<rect width="67" height="76" fill="white"/>
</clipPath>
</defs>
</svg>
