<svg width="103" height="92" viewBox="0 0 103 92" fill="none" xmlns="http://www.w3.org/2000/svg">
<g clip-path="url(#clip0_1188_560)">
<path d="M84.6865 29.8191C83.5904 29.4415 82.4849 29.0917 81.3712 28.7701C81.5583 28.0026 81.7305 27.2445 81.8834 26.4996C84.3932 14.2685 82.7525 4.4148 77.1482 1.1705C71.7749 -1.9397 62.9873 1.30339 54.1124 9.05747C53.2378 9.82304 52.3825 10.6107 51.5475 11.4196C50.9885 10.8817 50.4196 10.3542 49.8411 9.83745C40.5398 1.54655 31.2166 -1.94778 25.6184 1.30581C20.25 4.4257 18.6603 13.6888 20.9199 25.2806C21.1447 26.4286 21.3985 27.5708 21.6811 28.7058C20.3614 29.0823 19.088 29.483 17.8693 29.9095C6.96417 33.7266 0 39.7083 0 45.9129C0 52.3211 7.47635 58.7487 18.8345 62.6462C19.7553 62.9609 20.6838 63.2524 21.6191 63.5207C21.3154 64.7432 21.0457 65.974 20.8104 67.2117C18.6563 78.6023 20.3385 87.6465 25.6925 90.7466C31.2223 93.9481 40.5035 90.6578 49.5406 82.7268C50.2734 82.082 50.9901 81.4189 51.6899 80.7383C52.5942 81.6142 53.5226 82.4646 54.4741 83.2886C63.2283 90.8508 71.8739 93.9045 77.2226 90.7959C82.7472 87.5851 84.5429 77.8692 82.2117 66.0484C82.0281 65.1224 81.8221 64.2009 81.5941 63.2848C82.2459 63.0909 82.8856 62.8914 83.5093 62.6838C95.3172 58.7564 103 52.4068 103 45.9129C103 39.6857 95.8109 33.6636 84.6865 29.8191ZM82.1256 58.491C81.5623 58.6781 80.9846 58.8586 80.3955 59.0343C79.0919 54.8913 77.3329 50.4861 75.1799 45.9343C77.2343 41.4912 78.9258 37.1422 80.1927 33.0262C81.2465 33.3324 82.2688 33.6551 83.2546 33.9956C92.7861 37.29 98.6 42.1601 98.6 45.9129C98.6 49.9101 92.321 55.0993 82.1256 58.491ZM77.8954 66.9064C78.9262 72.1331 79.073 76.859 78.3902 80.5537C77.7771 83.8735 76.5435 86.0866 75.0178 86.9732C71.7721 88.8595 64.8305 86.4077 57.344 79.9401C56.459 79.174 55.5954 78.3834 54.7542 77.5691C57.6567 74.3825 60.5572 70.6782 63.388 66.5638C68.3675 66.1203 73.0717 65.3949 77.3377 64.4049C77.5432 65.2342 77.7291 66.0682 77.8954 66.9064ZM35.115 86.6472C31.9437 87.7713 29.4178 87.8037 27.8909 86.9199C24.6419 85.0388 23.2913 77.7767 25.1336 68.0357C25.3526 66.8847 25.6034 65.7399 25.8856 64.6028C30.1046 65.5399 34.7746 66.2136 39.7656 66.62C42.6158 70.6459 45.6 74.3462 48.6075 77.5864C47.9684 78.2073 47.3141 78.8123 46.6453 79.4009C42.6488 82.9077 38.6443 85.3959 35.115 86.6472ZM20.258 58.4664C15.2356 56.7429 11.0878 54.5031 8.24483 52.059C5.68995 49.8629 4.40043 47.6821 4.40043 45.9129C4.40043 42.1476 9.9918 37.3449 19.3177 34.0808C20.4495 33.685 21.634 33.3114 22.8632 32.9608C24.1523 37.1696 25.8429 41.5704 27.8832 46.0204C25.8164 50.5362 24.1016 55.0072 22.8 59.2658C21.9463 59.0203 21.0987 58.7537 20.258 58.4664ZM25.2382 24.4319C23.3025 14.5007 24.588 7.00919 27.8233 5.12893C31.2689 3.12628 38.8885 5.98161 46.9197 13.1407C47.4434 13.6086 47.9586 14.086 48.4651 14.5726C45.4725 17.7987 42.5157 21.4716 39.6908 25.4737C34.8466 25.9244 30.2096 26.6483 25.9463 27.6181C25.6837 26.5623 25.4476 25.4997 25.2382 24.4319ZM69.6678 35.4461C68.6609 33.6999 67.6165 31.9757 66.5356 30.2747C69.8219 30.6919 72.9707 31.2457 75.9275 31.9227C75.0399 34.7792 73.9335 37.7654 72.6311 40.8271C71.6791 39.0138 70.6912 37.2198 69.6678 35.4461ZM51.5495 17.7297C53.5789 19.9371 55.6116 22.4014 57.6108 25.0754C53.5552 24.8831 49.4928 24.8823 45.4371 25.073C47.4383 22.4237 49.4883 19.9626 51.5495 17.7297ZM33.3149 35.4764C32.3043 37.2358 31.3348 39.0187 30.4071 40.8235C29.1261 37.7727 28.0297 34.7728 27.1345 31.8758C30.0732 31.2158 33.207 30.6762 36.4725 30.2666C35.3795 31.978 34.3266 33.7154 33.3149 35.4764ZM36.5662 61.8735C33.1926 61.4954 30.0116 60.9837 27.0737 60.3414C27.983 57.3928 29.1035 54.329 30.4124 51.2128C31.3437 53.019 32.3173 54.8029 33.3322 56.5631C34.3758 58.3727 35.4565 60.1451 36.5662 61.8735ZM51.671 74.4072C49.5852 72.1485 47.5051 69.6494 45.4737 66.9617C47.446 67.0392 49.4565 67.0788 51.5 67.0788C53.5994 67.0788 55.6747 67.0316 57.7174 66.9403C55.7117 69.6764 53.6867 72.1792 51.671 74.4072ZM72.6725 51.0536C74.0494 54.2042 75.2097 57.2518 76.1311 60.15C73.1449 60.8342 69.9205 61.3851 66.5231 61.7943C67.6118 60.0617 68.666 58.3075 69.6851 56.5328C70.7213 54.7289 71.7174 52.9021 72.6725 51.0536ZM65.8737 54.3258C64.3135 57.0468 62.6656 59.7161 60.9325 62.3295C57.7933 62.5527 54.6471 62.6636 51.5 62.6619C48.2945 62.6619 45.1768 62.5618 42.1745 62.3663C40.3962 59.7589 38.7168 57.0849 37.1399 54.35C35.5705 51.6297 34.1049 48.8504 32.7456 46.0183C34.1014 43.1856 35.563 40.405 37.1271 37.6826L37.1267 37.683C38.6902 34.9599 40.3561 32.2973 42.121 29.7011C45.184 29.4685 48.3251 29.3473 51.4996 29.3473C54.6886 29.3473 57.8341 29.4697 60.8963 29.7039C62.6433 32.2962 64.2987 34.9496 65.8592 37.6592C67.4286 40.3756 68.9094 43.1426 70.2995 45.9557C68.9237 48.7976 67.4475 51.5894 65.8737 54.3258ZM74.9506 4.99725C78.3995 6.99424 79.7409 15.0472 77.5739 25.6078C77.4355 26.2815 77.2802 26.9678 77.1112 27.6637C72.8375 26.6733 68.1973 25.937 63.339 25.4793C60.5089 21.4332 57.5762 17.7547 54.6322 14.5702C55.4038 13.8236 56.1937 13.0963 57.0012 12.389C64.6055 5.74572 71.7125 3.12265 74.9506 4.99725ZM51.5 36.6793C56.5796 36.6793 60.6976 40.8134 60.6976 45.9129C60.6976 51.0124 56.5796 55.1466 51.5 55.1466C46.4204 55.1466 42.3024 51.0124 42.3024 45.9129C42.3024 40.8134 46.4204 36.6793 51.5 36.6793Z" fill="#00D8FF"/>
</g>
<defs>
<clipPath id="clip0_1188_560">
<rect width="103" height="92" fill="white"/>
</clipPath>
</defs>
</svg>
