<svg width="88" height="54" viewBox="0 0 88 54" fill="none" xmlns="http://www.w3.org/2000/svg">
<g clip-path="url(#clip0_1188_591)">
<path d="M22.125 18.3125C25.0417 6.64583 32.3333 0.8125 44 0.8125C61.5 0.8125 63.6875 13.9375 72.4375 16.125C78.2708 17.5833 83.375 15.3958 87.75 9.5625C84.8333 21.2292 77.5417 27.0625 65.875 27.0625C48.375 27.0625 46.1875 13.9375 37.4375 11.75C31.6042 10.2917 26.5 12.4792 22.125 18.3125ZM0.25 44.5625C3.16667 32.8958 10.4583 27.0625 22.125 27.0625C39.625 27.0625 41.8125 40.1875 50.5625 42.375C56.3958 43.8333 61.5 41.6458 65.875 35.8125C62.9583 47.4792 55.6667 53.3125 44 53.3125C26.5 53.3125 24.3125 40.1875 15.5625 38C9.72917 36.5417 4.625 38.7292 0.25 44.5625Z" fill="#44A8B3"/>
</g>
<defs>
<clipPath id="clip0_1188_591">
<rect width="88" height="53" fill="white" transform="translate(0 0.5)"/>
</clipPath>
</defs>
</svg>
