<svg width="88" height="88" viewBox="0 0 88 88" fill="none" xmlns="http://www.w3.org/2000/svg">
<g clip-path="url(#clip0_1188_565)">
<path d="M87.6775 13.2062L46.6088 86.6437C46.4159 86.9891 46.1347 87.277 45.794 87.4779C45.4532 87.6789 45.0652 87.7856 44.6696 87.7872C44.274 87.7888 43.8851 87.6852 43.5428 87.487C43.2004 87.2888 42.9169 87.0031 42.7213 86.6593L0.840016 13.2124C0.629453 12.8439 0.528368 12.423 0.548625 11.999C0.568881 11.5751 0.709638 11.1657 0.954377 10.8189C1.19912 10.4722 1.53769 10.2024 1.93035 10.0413C2.32302 9.88016 2.7535 9.83438 3.17127 9.90932L44.2838 17.2593C44.5452 17.3064 44.8129 17.3064 45.0744 17.2593L85.3275 9.92182C85.7437 9.84578 86.1729 9.88961 86.5651 10.0482C86.9572 10.2068 87.2963 10.4736 87.5426 10.8176C87.7889 11.1615 87.9324 11.5684 87.9563 11.9907C87.9802 12.4131 87.8835 12.8367 87.6775 13.2062Z" fill="url(#paint0_linear_1188_565)"/>
<path d="M63.865 0.271859L33.4775 6.22498C33.2343 6.27248 33.0137 6.39963 32.8508 6.58637C32.6878 6.7731 32.5917 7.00879 32.5775 7.25623L30.7088 38.8312C30.6984 39.0045 30.7287 39.1777 30.7971 39.3372C30.8654 39.4967 30.9701 39.638 31.1027 39.75C31.2352 39.8619 31.3921 39.9414 31.5608 39.9821C31.7295 40.0228 31.9053 40.0236 32.0744 39.9844L40.5338 38.0312C40.716 37.9891 40.9059 37.9935 41.086 38.044C41.2661 38.0945 41.4306 38.1894 41.5644 38.3201C41.6983 38.4508 41.7971 38.6131 41.8518 38.7919C41.9065 38.9708 41.9153 39.1606 41.8775 39.3437L39.365 51.6531C39.3262 51.8426 39.3374 52.0389 39.3974 52.2228C39.4574 52.4067 39.5642 52.5718 39.7073 52.702C39.8504 52.8321 40.0248 52.9229 40.2135 52.9652C40.4023 53.0076 40.5988 53.0002 40.7838 52.9437L46.0088 51.3562C46.194 51.2995 46.3909 51.2921 46.58 51.3346C46.769 51.3771 46.9437 51.4681 47.0869 51.5987C47.2301 51.7292 47.3368 51.8949 47.3965 52.0792C47.4563 52.2635 47.4669 52.4603 47.4275 52.65L43.4306 71.9844C43.1806 73.1937 44.79 73.8531 45.4619 72.8187L45.9088 72.125L70.6744 22.7031C70.7674 22.5169 70.8064 22.3084 70.787 22.1011C70.7677 21.8939 70.6908 21.6962 70.565 21.5304C70.4391 21.3646 70.2695 21.2373 70.0751 21.1629C69.8807 21.0885 69.6694 21.07 69.465 21.1094L60.7556 22.7875C60.5682 22.8234 60.3746 22.8105 60.1935 22.7502C60.0124 22.69 59.8498 22.5842 59.7213 22.4431C59.5927 22.302 59.5025 22.1303 59.4593 21.9444C59.4161 21.7585 59.4213 21.5646 59.4744 21.3812L65.1556 1.67498C65.2092 1.49106 65.2145 1.29644 65.171 1.10989C65.1275 0.923329 65.0367 0.751113 64.9073 0.609825C64.778 0.468537 64.6144 0.362938 64.4324 0.303198C64.2504 0.243457 64.0561 0.231589 63.8681 0.268734L63.865 0.271859Z" fill="url(#paint1_linear_1188_565)"/>
</g>
<defs>
<linearGradient id="paint0_linear_1188_565" x1="-0.183359" y1="7.28388" x2="50.9266" y2="76.6952" gradientUnits="userSpaceOnUse">
<stop stop-color="#41D1FF"/>
<stop offset="1" stop-color="#BD34FE"/>
</linearGradient>
<linearGradient id="paint1_linear_1188_565" x1="41.9212" y1="1.8868" x2="51.1667" y2="65.3102" gradientUnits="userSpaceOnUse">
<stop stop-color="#FFEA83"/>
<stop offset="0.083" stop-color="#FFDD35"/>
<stop offset="1" stop-color="#FFA800"/>
</linearGradient>
<clipPath id="clip0_1188_565">
<rect width="88" height="88" fill="white"/>
</clipPath>
</defs>
</svg>
