<svg width="126" height="141" viewBox="0 0 126 141" fill="none" xmlns="http://www.w3.org/2000/svg">
<path d="M7.68819 57.5808L58.2559 7.04151C71.7406 -1.00071 82.4208 4.79227 85.801 8.69403C93.6122 16.5435 112.17 33.7653 119.65 42.9836C127.13 52.2019 123.458 64.1429 119.787 68.1844L86.4862 101.648L71.4119 86.3621L102.109 55.7906L71.4119 24.806L25.5036 71.0763L71.4119 116.796L86.4862 101.785L101.972 117.209C100.601 118.586 97.3968 122.259 85.801 133.321C74.9749 143.649 60.9969 137.544 56.6116 133.321C44.5521 121.34 17.826 96.0837 8.23661 84.4341C-0.945302 73.2797 3.98819 61.5744 7.68819 57.5808Z" fill="url(#paint0_linear_1189_600)" stroke="#43720A" stroke-width="4"/>
<defs>
<linearGradient id="paint0_linear_1189_600" x1="63.5" y1="139" x2="63.5" y2="3" gradientUnits="userSpaceOnUse">
<stop stop-color="#7DAC29"/>
<stop offset="1" stop-color="#12151C"/>
</linearGradient>
</defs>
</svg>
