<svg width="67" height="76" viewBox="0 0 67 76" fill="none" xmlns="http://www.w3.org/2000/svg">
<g clip-path="url(#clip0_1188_575)">
<path d="M6.68565 67.7688L0.716492 0.79248H66.3294L60.3523 67.7582L33.4831 75.2076L6.68565 67.7688Z" fill="#1572B6"/>
<path d="M33.5229 69.5147L55.2362 63.495L60.3443 6.26978H33.5229V69.5147Z" fill="#33A9DC"/>
<path d="M33.5229 30.5344H44.3929L45.1423 22.1229H33.5229V13.908H54.12L53.9233 16.1112L51.9062 38.7493H33.5229V30.5344V30.5344Z" fill="white"/>
<path d="M33.5735 51.8679L33.5362 51.8786L24.3885 49.4069L23.8038 42.8557H15.557L16.7078 55.7535L33.5336 60.4257L33.5735 60.415V51.8679V51.8679Z" fill="#EBEBEB"/>
<path d="M43.6939 38.4014L42.7052 49.4015L33.5442 51.8732V60.4203L50.3833 55.7534L50.5082 54.3661L51.9354 38.4014H43.6939V38.4014Z" fill="white"/>
<path d="M33.5522 13.908V22.1229H13.7099L13.5452 20.2758L13.1704 16.1112L12.9738 13.908H33.5522V13.908ZM33.523 30.5344V38.7493H24.4895L24.3247 36.9023L23.9527 32.7377L23.756 30.5344H33.523V30.5344Z" fill="#EBEBEB"/>
</g>
<defs>
<clipPath id="clip0_1188_575">
<rect width="67" height="76" fill="white"/>
</clipPath>
</defs>
</svg>
