<svg width="50" height="76" viewBox="0 0 50 76" fill="none" xmlns="http://www.w3.org/2000/svg">
<g clip-path="url(#clip0_1188_593)">
<path d="M12.4658 74.9512C19.3223 74.9512 24.8535 69.4199 24.8535 62.5635V50.1758H12.4658C5.60938 50.1758 0.078125 55.707 0.078125 62.5635C0.078125 69.4199 5.60938 74.9512 12.4658 74.9512Z" fill="#0ACF83"/>
<path d="M0.078125 37.7881C0.078125 30.9316 5.60938 25.4004 12.4658 25.4004H24.8535V50.1758H12.4658C5.60938 50.1758 0.078125 44.6445 0.078125 37.7881Z" fill="#A259FF"/>
<path d="M0.078125 13.0127C0.078125 6.15625 5.60938 0.625 12.4658 0.625H24.8535V25.4004H12.4658C5.60938 25.4004 0.078125 19.8691 0.078125 13.0127Z" fill="#F24E1E"/>
<path d="M24.8535 0.625H37.2412C44.0977 0.625 49.6289 6.15625 49.6289 13.0127C49.6289 19.8691 44.0977 25.4004 37.2412 25.4004H24.8535V0.625Z" fill="#FF7262"/>
<path d="M49.6289 37.7881C49.6289 44.6445 44.0977 50.1758 37.2412 50.1758C30.3848 50.1758 24.8535 44.6445 24.8535 37.7881C24.8535 30.9316 30.3848 25.4004 37.2412 25.4004C44.0977 25.4004 49.6289 30.9316 49.6289 37.7881Z" fill="#1ABCFE"/>
</g>
<defs>
<clipPath id="clip0_1188_593">
<rect width="50" height="75" fill="white" transform="translate(0 0.5)"/>
</clipPath>
</defs>
</svg>
