<svg width="84" height="78" viewBox="0 0 84 78" fill="none" xmlns="http://www.w3.org/2000/svg">
<path d="M82.416 35.5253L45.7407 1.47098C43.6299 -0.490327 40.2042 -0.490327 38.0908 1.47098L30.475 8.54291L40.136 17.514C42.381 16.8095 44.9555 17.2821 46.7451 18.9439C48.5432 20.6164 49.0485 23.0274 48.2715 25.1188L57.5821 33.7648C59.8347 33.0442 62.4338 33.5104 64.2329 35.1838C66.7473 37.5177 66.7473 41.3005 64.2329 43.6359C61.7178 45.9717 57.6441 45.9717 55.1277 43.6359C53.2364 41.8779 52.7692 39.2986 53.7266 37.135L45.0438 29.0722L45.0428 50.2901C45.6722 50.5791 46.2471 50.9609 46.7451 51.4206C49.2595 53.7545 49.2595 57.5376 46.7451 59.8749C44.23 62.2094 40.1544 62.2094 37.6429 59.8749C35.1285 57.5376 35.1285 53.7548 37.6429 51.4209C38.2455 50.861 38.9616 50.4177 39.7498 50.1165V28.7008C38.9604 28.4016 38.2439 27.958 37.6429 27.3964C35.7378 25.6298 35.2797 23.0341 36.2559 20.862L26.7324 12.0176L1.58485 35.3678C-0.528282 37.3309 -0.528282 40.5122 1.58485 42.4738L38.2608 76.5288C40.3722 78.4904 43.7972 78.4904 45.9113 76.5288L82.4156 42.632C84.5281 40.6698 84.5281 37.4866 82.4156 35.5253" fill="#DE4C36"/>
</svg>
