<svg width="74" height="84" viewBox="0 0 74 84" fill="none" xmlns="http://www.w3.org/2000/svg">
<g clip-path="url(#clip0_1188_573)">
<path d="M70.8219 18.7123L40.4724 1.00049C38.5584 -0.0952149 36.0662 -0.0952149 34.1371 1.00049L3.46342 18.7123C1.48816 19.8543 0.090332 22.0008 0.090332 24.2966V59.6732C0.090332 61.969 1.52463 64.1162 3.49989 65.2644L11.604 69.8907C15.4774 71.8082 16.8463 71.8082 18.6089 71.8082C24.3441 71.8082 27.6201 68.3226 27.6201 62.243V27.3174C27.6201 26.8242 27.3648 26.0903 26.883 26.0903H23.013C22.523 26.0903 21.4259 26.8242 21.4259 27.3167V62.2423C21.4259 64.9373 19.0005 67.6191 14.4677 65.3412L6.09388 60.4901C5.80207 60.331 5.59628 60.0107 5.59628 59.6732V24.2966C5.59628 23.9632 5.97826 23.6284 6.27214 23.4576L36.8467 5.7762C37.1323 5.61365 37.5521 5.61365 37.8371 5.7762L68.0386 23.4534C68.3277 23.6284 68.2258 23.9528 68.2258 24.2966V59.6732C68.2258 60.0107 68.3518 60.3393 68.0661 60.5019L37.7242 78.1936C37.464 78.3506 37.1413 78.3506 36.8563 78.1936L29.0744 73.5251C28.8397 73.3881 28.5609 73.339 28.3359 73.4656C26.1707 74.699 25.7715 74.8629 23.7405 75.5706C23.2408 75.7456 22.5037 76.0492 24.0226 76.9049L34.2073 82.9603C35.1796 83.5248 36.2827 83.822 37.4055 83.8222C38.5356 83.8222 39.6423 83.5275 40.6176 82.9603L70.8212 65.2644C72.7964 64.1079 73.7324 61.969 73.7324 59.6732V24.2966C73.7324 22.0008 72.7964 19.8599 70.8219 18.7123ZM46.829 54.0674C38.7586 54.0674 36.9809 51.8296 36.3883 47.7961C36.3195 47.3617 35.9527 46.8422 35.5129 46.8422H31.5685C31.0806 46.8422 30.6883 47.4371 30.6883 47.9255C30.6883 53.09 33.4819 59.3474 46.8297 59.3474C56.4919 59.3474 62.0316 55.574 62.0316 48.896C62.0316 42.2747 57.5807 40.5371 48.2103 39.2906C38.7387 38.0323 37.7765 37.3966 37.7765 35.1665C37.7765 33.3279 38.5914 30.8757 45.6046 30.8757C51.8711 30.8757 54.1808 32.2273 55.1313 36.4725C55.2125 36.8716 55.5752 37.158 55.9847 37.158H59.9449C60.1885 37.158 60.4211 37.0591 60.5918 36.8841C60.757 36.6959 60.8444 36.46 60.8224 36.2069C60.2091 28.8966 55.377 25.4899 45.6039 25.4899C36.9107 25.4899 31.7248 29.1796 31.7248 35.3643C31.7248 42.0728 36.8845 43.9266 45.2295 44.756C55.2125 45.7396 55.9888 47.2061 55.9888 49.1796C55.9888 52.6071 53.251 54.0674 46.829 54.0674Z" fill="#83CD29"/>
</g>
<defs>
<clipPath id="clip0_1188_573">
<rect width="74" height="84" fill="white"/>
</clipPath>
</defs>
</svg>
