<svg width="84" height="84" viewBox="0 0 84 84" fill="none" xmlns="http://www.w3.org/2000/svg">
<g clip-path="url(#clip0_1188_569)">
<path d="M81.0303 9.14597L63.7338 1.00685C62.757 0.546531 61.6579 0.394624 60.5888 0.572191C59.5198 0.749758 58.5337 1.248 57.7673 1.99786L1.14731 52.451C0.460343 53.0602 0.0491274 53.9113 0.00412293 54.8169C-0.0408816 55.7225 0.284011 56.6084 0.90733 57.2799C0.982324 57.3591 1.05732 57.4353 1.13831 57.5057L5.7609 61.6104C6.36494 62.1477 7.14245 62.4613 7.9584 62.4967C8.77435 62.532 9.5772 62.2869 10.2275 61.8039L78.4265 11.257C78.9416 10.8749 79.5556 10.641 80.1994 10.5815C80.8432 10.522 81.4912 10.6394 82.0704 10.9203C82.6497 11.2013 83.1372 11.6347 83.4781 12.1717C83.819 12.7088 83.9997 13.3282 84 13.9602V13.7638C83.9999 12.7989 83.7212 11.8536 83.1958 11.0367C82.6705 10.2198 81.9198 9.56439 81.0303 9.14597V9.14597Z" fill="#0065A9"/>
<path d="M81.0303 74.5747L63.7338 82.9787C62.7567 83.4525 61.6579 83.6086 60.5892 83.4254C59.5204 83.2421 58.5344 82.7287 57.7673 81.9558L1.14731 29.8762C0.460343 29.2473 0.0491274 28.3689 0.00412293 27.4341C-0.0408816 26.4994 0.284011 25.5849 0.90733 24.8918C0.982324 24.8101 1.05732 24.7315 1.13831 24.6588L5.7609 20.422C6.36555 19.865 7.14484 19.54 7.96281 19.5034C8.78077 19.4669 9.58547 19.7213 10.2365 20.2223L78.4265 72.3957C78.9416 72.7901 79.5556 73.0316 80.1994 73.093C80.8432 73.1544 81.4912 73.0332 82.0704 72.7433C82.6497 72.4533 83.1372 72.0059 83.4781 71.4516C83.819 70.8972 83.9997 70.2579 84 69.6055V69.8234C83.9968 70.8167 83.7166 71.789 83.1914 72.6292C82.6662 73.4695 81.9173 74.1436 81.0303 74.5747V74.5747Z" fill="#007ACC"/>
<path d="M63.1505 82.9865C62.1453 83.4532 61.0149 83.607 59.9154 83.4265C58.8159 83.2459 57.8015 82.7401 57.0123 81.9787C57.4555 82.4013 58.0179 82.6881 58.6291 82.8032C59.2403 82.9183 59.873 82.8566 60.448 82.6258C61.023 82.395 61.5147 82.0053 61.8615 81.5057C62.2083 81.0061 62.3948 80.4187 62.3975 79.8171V4.18253C62.398 3.57815 62.2129 2.98722 61.8655 2.48459C61.5181 1.98196 61.0241 1.59026 60.4461 1.3591C59.8681 1.12793 59.232 1.06771 58.6186 1.18607C58.0051 1.30442 57.4418 1.59602 57 2.02393C57.7886 1.26168 58.8028 0.75499 59.9024 0.573921C61.0021 0.392852 62.1328 0.546356 63.1382 1.0132L80.9294 9.27791C81.8474 9.70128 82.6228 10.3668 83.1662 11.1977C83.7095 12.0286 83.9985 12.991 84 13.9738V70.0259C84.0002 71.0079 83.7133 71.97 83.1722 72.8014C82.6311 73.6327 81.8579 74.2994 80.9417 74.7247L63.1505 82.9865Z" fill="#1F9CF0"/>
</g>
<defs>
<clipPath id="clip0_1188_569">
<rect width="84" height="84" fill="white"/>
</clipPath>
</defs>
</svg>
